<svg xmlns="http://www.w3.org/2000/svg" id="Logo" viewBox="0 0 651.81 270.53"><defs><style>.cls-1{fill:#24a00d}.cls-2{fill:#2fc605}.cls-3{fill:#001665}</style></defs><title>klimatpodden-logo-2019-ONLY-LOGO-FINAL-export</title><path d="M39.94,240.74a115.64,115.64,0,0,1-37.18,1.42l50.78-49.24Z" class="cls-1" transform="translate(-0.17 -0.59)"/><path d="M3.19,203.76l49-12.32L.72,241.36A116,116,0,0,1,3.19,203.76Z" class="cls-1" transform="translate(-0.17 -0.59)"/><path d="M78.15,150.82a110.63,110.63,0,0,0-5.5,20.8l-17.58,17-.34.09-51,12.82a111.32,111.32,0,0,1,16.5-36.18Z" class="cls-1" transform="translate(-0.17 -0.59)"/><path d="M96.65,118.84A111.31,111.31,0,0,0,79,148.54L22,162.88a111.05,111.05,0,0,1,74.62-44Z" class="cls-1" transform="translate(-0.17 -0.59)"/><path d="M77.29,225.8l-.19.12a110.56,110.56,0,0,1-34.95,14.35L56.33,190.4h0l.08-.25,15.7-15.22,0,0c0,.16,0,.32-.07.48-.23,1.79-.42,3.58-.56,5.37,0,.48-.08,1-.11,1.45a108.29,108.29,0,0,0-.18,11.38l0,0c0,1,.07,2.07.14,3.1l0,0q.09,1.52.24,3c0,.28,0,.57.08.85A110.75,110.75,0,0,0,77.29,225.8Z" class="cls-1" transform="translate(-0.17 -0.59)"/><path d="M135.76,243.3a115.32,115.32,0,0,1-28.2,24.27l9.06-70.14,2.38,5.7v18.34A13.52,13.52,0,0,0,132.29,235Z" class="cls-2" transform="translate(-0.17 -0.59)"/><path d="M84,237.27l30.67-40.17-9.19,71.12A116.37,116.37,0,0,1,84,237.27Z" class="cls-2" transform="translate(-0.17 -0.59)"/><path d="M119.13,136.73a11.92,11.92,0,0,0-.13,1.8v24.83L115.82,188l-.66,5.13-.21.28L83,235.23q-2.09-4.64-3.74-9.43a110.75,110.75,0,0,1-5.57-25.28c0-.28,0-.57-.08-.85q-.15-1.51-.24-3l0,0L98.1,164.27h0l3.31-4.33Z" class="cls-2" transform="translate(-0.17 -0.59)"/><path d="M151.46,125H132.53a12.5,12.5,0,0,0-1.51.09l-.71.1c-.23,0-.45.08-.68.13a6.49,6.49,0,0,0-.76.19l-.72.22c-.2.07-.4.14-.6.23s-.35.14-.52.21l-.18.09-.48.23c-.21.1-.42.22-.63.34l.29-2.25.41-3.17.41-3.18,3-23.32,1.55-12-2-.26-1.71,13.24-2.88,22.35-.69,5.38-.41,3.18-.1.74-.2.24-20.52,26.88L99.6,159h0L73.28,193.51l0,0a108.29,108.29,0,0,1,.18-11.38c0-.48.07-1,.11-1.45.14-1.79.33-3.58.56-5.37,0-.16,0-.32.07-.48.14-1.09.3-2.17.48-3.25a110.63,110.63,0,0,1,5.5-20.8c.29-.76.59-1.52.89-2.28a111.31,111.31,0,0,1,17.61-29.7q3.24-3.91,6.81-7.54l.13-.12a116.8,116.8,0,0,1,20.24-16.32l1.74-13.44,6,.77L132,94l-.2,1.54A116,116,0,0,1,151.46,125Z" class="cls-2" transform="translate(-0.17 -0.59)"/><polygon points="118.83 178.4 118.83 197.36 117.06 193.12 117.06 193.11 116.95 192.87 118.28 182.66 118.83 178.4" class="cls-2"/><path d="M142.11,235q-2.34,3.38-4.91,6.56L134.46,235Z" class="cls-2" transform="translate(-0.17 -0.59)"/><path d="M217.27,110.8a4.09,4.09,0,0,1-1.9,3.56,10.14,10.14,0,0,1-5.7,1.3h-7.59q-6.57,0-8.61-2.19c-1.37-1.46-2.87-5-4.53-10.61q-1.75-5.52-5.18-17.75t-5-15.15C177.65,68,176.63,67,175.66,67c-.78,0-1.17,1.19-1.17,3.56l.29,7.78v24.31a33.39,33.39,0,0,1-.66,7.46,6.46,6.46,0,0,1-2.77,4.13,9.58,9.58,0,0,1-5.33,1.38h-7.3a9.58,9.58,0,0,1-5.33-1.38,6.49,6.49,0,0,1-2.77-4.13,33.39,33.39,0,0,1-.66-7.46V13.56a33.45,33.45,0,0,1,.66-7.46A6.52,6.52,0,0,1,153.39,2,9.58,9.58,0,0,1,158.72.59H166A9.58,9.58,0,0,1,171.35,2a6.48,6.48,0,0,1,2.77,4.13,33.45,33.45,0,0,1,.66,7.46q0,21.39.07,25c.05,2.43.27,3.64.66,3.64s1.12-.4,1.9-1.21a18.12,18.12,0,0,0,2.77-5.27q1.6-4,3.29-9.88c1.12-3.89,1.77-6.11,2-6.65.48-1.3,1.39-3.81,2.7-7.54a40.15,40.15,0,0,1,3.14-7.37,9.27,9.27,0,0,1,2.63-2.75,7.6,7.6,0,0,1,4.23-1h8.47q5.83,0,7.44,1.14a3.89,3.89,0,0,1,1.61,3.4c0,2.05-.83,4.92-2.48,8.59s-4.87,10.59-9.93,21.07S195.66,50.67,195.66,51c0,.1.53,1.45,1.6,4Q216.84,102.86,217.27,110.8Z" class="cls-3" transform="translate(-0.17 -0.59)"/><path d="M265,92.16a7.29,7.29,0,0,1,5,1.62q1.83,1.62,1.83,6.81v2.1a33.39,33.39,0,0,1-.66,7.46,6.49,6.49,0,0,1-2.77,4.13,9.58,9.58,0,0,1-5.33,1.38h-33a9.54,9.54,0,0,1-5.32-1.38,6.47,6.47,0,0,1-2.78-4.13,33.39,33.39,0,0,1-.66-7.46V13.56A33.45,33.45,0,0,1,222,6.1,6.5,6.5,0,0,1,224.79,2,9.54,9.54,0,0,1,230.11.59h7.3A9.55,9.55,0,0,1,242.74,2a6.53,6.53,0,0,1,2.78,4.13,33.54,33.54,0,0,1,.65,7.46V83.41q0,5.19,1.1,7a4,4,0,0,0,3.43,2Z" class="cls-3" transform="translate(-0.17 -0.59)"/><path d="M300.05,102.69a33.39,33.39,0,0,1-.66,7.46,6.49,6.49,0,0,1-2.77,4.13,9.6,9.6,0,0,1-5.33,1.38H284a9.58,9.58,0,0,1-5.33-1.38,6.51,6.51,0,0,1-2.78-4.13,34.09,34.09,0,0,1-.65-7.46V13.56a34.16,34.16,0,0,1,.65-7.46A6.53,6.53,0,0,1,278.66,2,9.58,9.58,0,0,1,284,.59h7.3A9.6,9.6,0,0,1,296.62,2a6.52,6.52,0,0,1,2.77,4.13,33.45,33.45,0,0,1,.66,7.46Z" class="cls-3" transform="translate(-0.17 -0.59)"/><path d="M361.51,9.67a18.41,18.41,0,0,1,3.94-6.73C367,1.38,369.64.59,373.34.59h7.88A9.58,9.58,0,0,1,386.55,2a6.52,6.52,0,0,1,2.77,4.13,33.45,33.45,0,0,1,.66,7.46v89.13a33.39,33.39,0,0,1-.66,7.46,6.49,6.49,0,0,1-2.77,4.13,9.58,9.58,0,0,1-5.33,1.38h-7.3a9.58,9.58,0,0,1-5.33-1.38,6.46,6.46,0,0,1-2.77-4.13,33.39,33.39,0,0,1-.66-7.46V58.13c0-1.08-.24-1.62-.73-1.62s-.83.54-1.31,1.62c-.88,1.94-1.78,4-2.7,6.07s-2.54,5.89-4.82,11.35-3.9,8.64-4.82,9.56a4.35,4.35,0,0,1-3.14,1.38A4.4,4.4,0,0,1,344,84.54q-1.46-1.94-5.26-11.1t-6.56-15.31a4.07,4.07,0,0,0-1.32-1.62c-.49,0-.73.54-.73,1.62v44.56a33.39,33.39,0,0,1-.66,7.46,6.46,6.46,0,0,1-2.77,4.13,9.58,9.58,0,0,1-5.33,1.38h-7.3a9.58,9.58,0,0,1-5.33-1.38,6.49,6.49,0,0,1-2.77-4.13,33.39,33.39,0,0,1-.66-7.46V13.56A33.45,33.45,0,0,1,306,6.1,6.52,6.52,0,0,1,308.73,2,9.58,9.58,0,0,1,314.06.59h7.74A13,13,0,0,1,329,2.3q2.64,1.7,4.82,7.37l11,28.68q1.75,4.55,2.92,4.54t2.92-4.54Z" class="cls-3" transform="translate(-0.17 -0.59)"/><path d="M454.73,32.84q1.68,10.54,3.72,22.53t5.33,29.82q3.29,17.84,3.29,22.37a8.08,8.08,0,0,1-2.12,6q-2.11,2.11-10.73,2.11h-7.74a4.65,4.65,0,0,1-3.94-2.43q-1.6-2.43-2.34-8.92c-.48-4.32-.85-7.15-1.09-8.5a8.64,8.64,0,0,0-1.17-3.25,2.22,2.22,0,0,0-1.82-1.21H424.44c-.88,0-1.63.57-2.27,1.7s-1.21,3.54-1.75,7.21-1,6.27-1.38,7.78a31.24,31.24,0,0,1-1.17,3.73,9,9,0,0,1-1.68,2.67,3.83,3.83,0,0,1-3,1.22h-6.87q-7.87,0-10-2.11a8.08,8.08,0,0,1-2.12-6c0-.87.08-2.22.22-4.06s1.78-11.64,4.9-29.41,6.37-37.95,9.78-60.53Q411,.6,419,.59h22.48q7.88,0,10.22,13Q453,22.31,454.73,32.84ZM424.58,64.45a2.56,2.56,0,0,0,.66,2q.66.57,5,.57a16.14,16.14,0,0,0,4.67-.41c.68-.27,1-.94,1-2L435.82,62c-.29-2.6-.75-7.59-1.38-15s-1.27-12.66-1.9-15.8-1.39-4.7-2.26-4.7S428.74,28,428,31.06s-1.43,8.78-2.11,17.26-1.07,13-1.17,13.7Z" class="cls-3" transform="translate(-0.17 -0.59)"/><path d="M501.09,103.83q-.3,7.45-2.49,9.64a8.48,8.48,0,0,1-6.27,2.19H485a9.55,9.55,0,0,1-5.33-1.38,6.51,6.51,0,0,1-2.78-4.13,34.09,34.09,0,0,1-.65-7.46V28.63a10.77,10.77,0,0,0-.51-3.65c-.34-.91-1.44-1.37-3.29-1.37l-4.23.16a10.09,10.09,0,0,1-4.82-1,3.72,3.72,0,0,1-1.75-3.57V5.46a4,4,0,0,1,2-3.57,8.73,8.73,0,0,1,4.89-1.3h40.29a8.73,8.73,0,0,1,4.89,1.3,4.05,4.05,0,0,1,2,3.57V19.23a4.34,4.34,0,0,1-1.32,3.24c-.87.87-2.63,1.3-5.25,1.3L505,23.61a5.42,5.42,0,0,0-3,.64c-.64.44-1,1.9-1,4.38Z" class="cls-3" transform="translate(-0.17 -0.59)"/><path d="M612.22,243.64a115.64,115.64,0,0,0,37.18,1.42l-50.78-49.23Z" class="cls-1" transform="translate(-0.17 -0.59)"/><path d="M649,206.67l-49-12.33,51.48,49.92A116.51,116.51,0,0,0,649,206.67Z" class="cls-1" transform="translate(-0.17 -0.59)"/><path d="M648.44,204.48l-51-12.83-.34-.08-17.58-17a110.53,110.53,0,0,0-5.5-20.79l57.93,14.57A111.13,111.13,0,0,1,648.44,204.48Z" class="cls-1" transform="translate(-0.17 -0.59)"/><path d="M630.13,165.78l-57-14.34a111.31,111.31,0,0,0-17.61-29.7,111.05,111.05,0,0,1,74.62,44Z" class="cls-1" transform="translate(-0.17 -0.59)"/><path d="M610,243.17a110.56,110.56,0,0,1-35-14.35l-.19-.12a110.75,110.75,0,0,0,5.57-25.28c0-.28,0-.57.08-.85q.15-1.51.24-3l0,0c.07-1,.12-2.06.14-3.1l0,0a108.29,108.29,0,0,0-.18-11.38c0-.48-.07-1-.11-1.45-.14-1.79-.33-3.58-.56-5.37,0-.16,0-.32-.07-.48l0,0L595.74,193l.08.25h0Z" class="cls-1" transform="translate(-0.17 -0.59)"/><path d="M544.6,270.48a115.75,115.75,0,0,1-28.2-24.27L521.08,235h4.39a13.52,13.52,0,0,0,13.19-10.52Z" class="cls-2" transform="translate(-0.17 -0.59)"/><path d="M568.18,240.18a116.48,116.48,0,0,1-21.48,30.94L539,211.53V202Z" class="cls-2" transform="translate(-0.17 -0.59)"/><path d="M578.76,199.54q-.09,1.52-.24,3c0,.28,0,.57-.08.85a110.75,110.75,0,0,1-5.57,25.28q-1.65,4.8-3.74,9.43L539,198.66V147.45l11.74,15.38,3.31,4.33h0l24.68,32.34Z" class="cls-2" transform="translate(-0.17 -0.59)"/><path d="M578.91,196.45l0,0-26.31-34.47h0l-3.31-4.35L539,144.15v-5.62a13.22,13.22,0,0,0-.08-1.42,13.5,13.5,0,0,0-11.07-11.89l-.52-4.06-2.88-22.35-1.71-13.24-2,.26,1.55,12,3,23.32.41,3.18.09.7H502.1a116.13,116.13,0,0,1,18.27-26.56l-.2-1.54-1.53-11.81,6-.77,1.74,13.44a116.8,116.8,0,0,1,20.24,16.32l.13.12q3.57,3.61,6.81,7.54a111.31,111.31,0,0,1,17.61,29.7c.3.76.6,1.52.89,2.28h0a110.53,110.53,0,0,1,5.5,20.79c.18,1.08.34,2.16.48,3.25,0,.16,0,.32.07.48.23,1.79.42,3.58.56,5.37,0,.48.08,1,.11,1.45A108.29,108.29,0,0,1,578.91,196.45Z" class="cls-2" transform="translate(-0.17 -0.59)"/><path d="M518.91,235,515,244.46a112.13,112.13,0,0,1-6.85-9.46Z" class="cls-2" transform="translate(-0.17 -0.59)"/><path d="M251.4,161.23a23.31,23.31,0,0,0-17-7.16,22.87,22.87,0,0,0-9.34,1.9,23.23,23.23,0,0,0-7.54,5.26,24.41,24.41,0,0,0-5,7.81,26.26,26.26,0,0,0,0,19.16,24,24,0,0,0,5,7.76,23.72,23.72,0,0,0,7.54,5.21,22.88,22.88,0,0,0,9.34,1.91,23.22,23.22,0,0,0,9.39-1.91A23.61,23.61,0,0,0,251.4,196a24.13,24.13,0,0,0,5-7.76,26.26,26.26,0,0,0,0-19.16A24.58,24.58,0,0,0,251.4,161.23Z" class="cls-3" transform="translate(-0.17 -0.59)"/><path d="M318.77,161.5a17.61,17.61,0,0,0-6.28-5.11,19.6,19.6,0,0,0-8.78-1.86H287.52v47.9h16.19a20,20,0,0,0,8.78-1.82,17.37,17.37,0,0,0,6.28-5,22.63,22.63,0,0,0,3.82-7.58,33,33,0,0,0,1.3-9.39,33.49,33.49,0,0,0-1.3-9.44A23.14,23.14,0,0,0,318.77,161.5Z" class="cls-3" transform="translate(-0.17 -0.59)"/><path d="M384.61,161.5a17.66,17.66,0,0,0-6.27-5.11,19.62,19.62,0,0,0-8.79-1.86H353.37v47.9h16.18a20,20,0,0,0,8.79-1.82,17.42,17.42,0,0,0,6.27-5,22.63,22.63,0,0,0,3.82-7.58,32.64,32.64,0,0,0,1.3-9.39,33.13,33.13,0,0,0-1.3-9.44A23.14,23.14,0,0,0,384.61,161.5Z" class="cls-3" transform="translate(-0.17 -0.59)"/><path d="M527.85,125.22a11.47,11.47,0,0,0-2-.21H132.53a12.5,12.5,0,0,0-1.51.09l-.71.1c-.23,0-.45.08-.68.13l-.13,0c-.17,0-.33.08-.5.12l-.13,0-.07,0-.49.14-.16.06c-.2.07-.4.14-.6.23s-.35.14-.52.21l-.18.09-.48.23c-.21.1-.42.22-.63.34a13.45,13.45,0,0,0-6.61,9.89h0a11.92,11.92,0,0,0-.13,1.8v82.94A13.52,13.52,0,0,0,132.29,235H525.47a13.52,13.52,0,0,0,13.19-10.52h0a13.46,13.46,0,0,0,.34-3V138.53A13.52,13.52,0,0,0,527.85,125.22Zm-333.46,48.7a17.88,17.88,0,0,1-3.4,6.37,17.28,17.28,0,0,1-5.9,4.51,19.94,19.94,0,0,1-8.7,1.72H159.46v20.09a4.27,4.27,0,0,1-4.37,4.37,2.17,2.17,0,0,1-.36,0,4,4,0,0,1-2.71-1.23,4.36,4.36,0,0,1-1.21-3.12V150.16a3.61,3.61,0,0,1,1.07-2.65,3.52,3.52,0,0,1,2.56-1.07h21.95a19.94,19.94,0,0,1,8.7,1.72,17.15,17.15,0,0,1,5.9,4.56,18.28,18.28,0,0,1,3.4,6.46,25.92,25.92,0,0,1,0,14.74Zm70.07,17.49a33.14,33.14,0,0,1-6.88,10.46,32.37,32.37,0,0,1-46.18,0,33.52,33.52,0,0,1-6.83-10.46,33.84,33.84,0,0,1,0-25.58,33.29,33.29,0,0,1,6.83-10.46,32.29,32.29,0,0,1,10.23-7.07,31.29,31.29,0,0,1,12.79-2.6,31.62,31.62,0,0,1,12.84,2.6,32.57,32.57,0,0,1,10.32,7.07,33.6,33.6,0,0,1,6.88,36Zm66.12-.14A29.8,29.8,0,0,1,325,201.4a25.41,25.41,0,0,1-9.07,6.7,29.53,29.53,0,0,1-12.18,2.42H282.5a3.52,3.52,0,0,1-2.56-1.07,3.61,3.61,0,0,1-1.07-2.65V150.16a3.61,3.61,0,0,1,1.07-2.65,3.52,3.52,0,0,1,2.56-1.07h21.21a29.06,29.06,0,0,1,12.18,2.46,25.87,25.87,0,0,1,9.07,6.79,30.37,30.37,0,0,1,5.62,10.23,40,40,0,0,1,2,12.7A39.59,39.59,0,0,1,330.58,191.27Zm65.85,0a30,30,0,0,1-5.63,10.13,25.41,25.41,0,0,1-9.07,6.7,29.49,29.49,0,0,1-12.18,2.42H348.34a3.48,3.48,0,0,1-2.55-1.07,3.57,3.57,0,0,1-1.07-2.65V150.16a3.57,3.57,0,0,1,1.07-2.65,3.48,3.48,0,0,1,2.55-1.07h21.21a29,29,0,0,1,12.18,2.46,25.87,25.87,0,0,1,9.07,6.79,30.56,30.56,0,0,1,5.63,10.23,40.28,40.28,0,0,1,1.95,12.7A39.87,39.87,0,0,1,396.43,191.27Zm52.35,18.09a4,4,0,0,1-2.88,1.16H414.84a4.23,4.23,0,0,1-3.07-1.3,4.32,4.32,0,0,1-1.3-3.17V150.9a4.29,4.29,0,0,1,1.3-3.16,4.19,4.19,0,0,1,3.07-1.3h30a4,4,0,0,1,2.88,1.16,3.82,3.82,0,0,1,1.21,2.84,3.92,3.92,0,0,1-1.21,2.93,4,4,0,0,1-2.88,1.16H419.12V175h22.13a4,4,0,0,1,2.88,1.16,3.88,3.88,0,0,1,1.21,2.93,3.78,3.78,0,0,1-1.21,2.84,4,4,0,0,1-2.88,1.16H419.12v19.35H445.9a4,4,0,0,1,2.88,1.16,3.87,3.87,0,0,1,1.21,2.93A3.8,3.8,0,0,1,448.78,209.36Zm58.41-2.47A4.13,4.13,0,0,1,503.1,211h-1.21a4.89,4.89,0,0,1-2.42-.56,4.69,4.69,0,0,1-1.77-1.86l-.86-1.42L495.56,205l-1.87-3.11h0l-24-39.66v44.36a4.36,4.36,0,0,1-1.21,3.12,4.11,4.11,0,0,1-3.07,1.25,4.27,4.27,0,0,1-4.37-4.37V150.25a4.28,4.28,0,0,1,4.28-4.28h1.21a5.45,5.45,0,0,1,2.55.56,4.42,4.42,0,0,1,1.82,2L490.48,181v0l8.06,13.33v-44a4.31,4.31,0,0,1,1.21-3.11,4.06,4.06,0,0,1,3.07-1.26,4.3,4.3,0,0,1,4.37,4.37Z" class="cls-3" transform="translate(-0.17 -0.59)"/><path d="M186.81,166.53a16.12,16.12,0,0,1-.61,4.37,10.52,10.52,0,0,1-1.95,3.81,10,10,0,0,1-3.44,2.7,11.29,11.29,0,0,1-5,1H159.56v-23.9H176.3a10.08,10.08,0,0,1,4.79,1.07,9.8,9.8,0,0,1,3.25,2.74,11.42,11.42,0,0,1,1.86,3.82A16.07,16.07,0,0,1,186.81,166.53Z" class="cls-3" transform="translate(-0.17 -0.59)"/></svg>