<?xml version="1.0" standalone="no"?>
<!DOCTYPE svg PUBLIC "-//W3C//DTD SVG 20010904//EN"
 "http://www.w3.org/TR/2001/REC-SVG-20010904/DTD/svg10.dtd">
<svg version="1.0" xmlns="http://www.w3.org/2000/svg"
 width="748.000000pt" height="748.000000pt" viewBox="0 0 748.000000 748.000000"
 preserveAspectRatio="xMidYMid meet">
<metadata>
Created by potrace 1.11, written by Peter Selinger 2001-2013
</metadata>
<g transform="translate(0.000000,748.000000) scale(0.100000,-0.100000)"
fill="#000000" stroke="none">
<path d="M5609 7468 c-1 -2 -3 -16 -4 -33 -2 -16 -6 -41 -9 -55 -2 -14 -10
-65 -16 -115 -6 -49 -13 -106 -16 -125 -6 -40 -10 -76 -18 -139 -8 -61 -14
-78 -32 -85 -14 -6 -116 -70 -139 -89 -5 -4 -53 -39 -105 -77 -52 -38 -102
-75 -110 -82 -8 -7 -37 -31 -65 -52 -27 -22 -52 -42 -55 -45 -3 -3 -39 -35
-80 -70 -75 -65 -338 -325 -395 -391 -17 -19 -53 -62 -80 -95 -28 -33 -52 -62
-55 -65 -10 -9 -125 -157 -140 -180 -8 -12 -29 -41 -46 -64 -17 -22 -55 -79
-86 -126 -49 -77 -70 -111 -132 -213 -35 -59 -177 -329 -181 -347 -3 -12 -25
-60 -54 -119 -17 -36 -31 -69 -31 -75 0 -6 -6 -23 -14 -37 -7 -15 -22 -51 -31
-80 -10 -30 -20 -58 -24 -64 -3 -5 -6 -12 -6 -15 -1 -3 -16 -50 -35 -105 -19
-55 -35 -105 -36 -111 -1 -6 -10 -38 -19 -70 -9 -33 -19 -66 -20 -74 -2 -8
-13 -53 -25 -100 -11 -47 -23 -94 -25 -105 -2 -11 -8 -42 -13 -70 -6 -27 -13
-68 -16 -90 -4 -23 -9 -52 -11 -65 -3 -14 -8 -45 -11 -70 -3 -25 -7 -56 -9
-70 -3 -14 -8 -56 -11 -95 -3 -38 -8 -86 -10 -105 -6 -44 -15 -510 -10 -510 2
0 28 33 58 73 31 39 122 160 204 267 81 107 152 197 156 198 4 2 8 8 8 13 0 6
5 15 10 22 29 34 48 58 66 83 10 15 27 35 37 46 9 10 17 21 17 24 0 3 20 31
45 62 61 76 54 68 114 147 29 39 58 77 64 85 7 8 48 62 91 120 44 58 83 107
88 108 4 2 8 8 8 13 0 8 20 35 48 64 6 8 12 18 12 23 0 6 3 12 8 14 4 2 44 50
88 108 454 593 748 978 808 1059 27 36 52 68 56 71 15 11 31 52 35 92 5 50 18
144 30 228 2 14 6 48 9 75 3 28 8 66 11 85 3 19 7 53 10 75 3 22 7 56 10 75 3
19 7 53 9 75 5 40 14 119 21 165 2 14 7 50 10 80 4 30 9 63 10 72 2 9 7 48 10
85 4 37 9 77 12 88 9 42 12 62 17 120 4 33 8 74 11 90 7 42 14 102 20 160 3
28 7 59 9 71 2 12 7 45 11 75 9 75 15 113 20 117 2 3 20 1 40 -2 36 -7 36 -7
29 -49 -3 -23 -8 -53 -9 -67 -11 -101 -17 -147 -20 -160 -2 -8 -7 -44 -10 -80
-4 -36 -9 -74 -11 -85 -2 -11 -6 -40 -9 -65 -5 -48 -11 -94 -21 -162 -4 -24
-8 -56 -9 -73 -3 -37 -15 -131 -20 -156 -2 -10 -6 -46 -10 -81 -3 -35 -8 -76
-11 -93 -3 -16 -7 -47 -10 -67 -2 -21 -6 -56 -9 -78 -3 -22 -7 -57 -9 -77 -8
-68 -16 -127 -21 -164 -3 -20 -7 -54 -10 -75 -5 -49 -11 -95 -21 -164 -13 -84
-10 -121 14 -171 11 -25 31 -70 42 -100 12 -30 28 -70 37 -89 15 -34 28 -66
44 -105 26 -66 112 -273 120 -290 21 -47 129 -307 129 -310 0 -3 11 -29 25
-59 14 -30 25 -58 25 -61 0 -3 9 -27 21 -53 12 -26 27 -60 34 -77 6 -16 22
-52 33 -80 90 -213 162 -387 162 -391 0 -2 10 -26 21 -52 30 -67 43 -98 73
-172 15 -36 31 -74 36 -85 5 -11 32 -76 60 -145 29 -69 58 -138 65 -155 7 -16
30 -70 50 -120 21 -49 46 -109 56 -132 11 -24 19 -45 19 -48 0 -3 9 -24 19
-48 11 -23 47 -109 81 -192 69 -168 82 -196 87 -192 4 4 81 305 87 344 3 15
10 53 16 83 17 82 20 103 21 120 1 8 5 33 9 55 5 22 11 69 15 105 4 36 8 76
10 90 16 132 19 211 20 440 0 287 -12 481 -40 650 -2 14 -7 43 -10 65 -3 22
-11 65 -16 95 -6 30 -12 66 -15 80 -2 14 -7 36 -10 50 -3 14 -8 34 -10 45 -3
16 -60 238 -78 305 -45 164 -163 463 -272 685 -108 221 -148 293 -271 482
-101 157 -298 423 -342 463 -3 3 -22 25 -42 50 -21 25 -51 60 -68 79 -17 19
-28 38 -25 43 3 5 8 28 10 51 3 23 7 58 10 77 3 19 7 49 9 65 4 41 14 112 21
157 3 20 7 55 9 76 1 22 6 49 9 60 8 24 -3 32 -52 38 -20 3 -66 9 -102 14 -71
10 -79 11 -81 8z"/>
<path d="M4297 5963 c-2 -1 -21 -5 -43 -8 -21 -4 -86 -15 -144 -27 -58 -11
-112 -21 -120 -23 -8 -1 -35 -7 -59 -14 -25 -7 -54 -14 -65 -16 -12 -1 -28 -5
-36 -8 -8 -3 -51 -16 -95 -28 -328 -89 -747 -269 -1040 -446 -11 -7 -35 -20
-52 -29 -18 -10 -33 -21 -33 -26 0 -4 -5 -8 -10 -8 -13 0 -200 -124 -305 -203
-236 -178 -556 -479 -725 -682 -41 -49 -77 -92 -80 -95 -8 -8 -85 -113 -95
-129 -5 -9 -4 -12 2 -8 9 6 1112 284 1162 294 14 2 28 6 33 9 5 3 18 7 31 10
19 3 177 43 242 60 11 3 29 7 40 9 11 1 40 9 65 16 25 7 50 13 55 14 6 2 56
14 112 29 55 14 109 27 119 29 31 6 78 18 94 24 8 4 26 8 40 10 14 2 48 11 77
19 29 8 64 17 79 20 15 3 31 7 34 9 4 2 22 7 41 10 42 7 51 19 85 106 26 70
219 459 232 469 4 3 18 25 31 50 46 86 218 344 255 383 6 7 23 30 38 52 14 22
37 52 50 67 64 73 62 69 23 66 -20 -1 -37 -3 -38 -5z"/>
<path d="M5334 5343 c-48 -65 -99 -132 -113 -148 -15 -17 -35 -44 -46 -59 -11
-15 -47 -63 -80 -106 -33 -43 -136 -178 -230 -300 -93 -123 -174 -228 -180
-234 -13 -14 -154 -200 -182 -240 -20 -29 -432 -569 -450 -591 -5 -5 -22 -28
-38 -50 -17 -22 -34 -45 -40 -51 -5 -6 -20 -24 -32 -40 -27 -36 -224 -295
-235 -309 -17 -21 -64 -83 -83 -109 -11 -16 -24 -33 -30 -40 -5 -6 -43 -54
-83 -107 l-72 -96 5 -64 c7 -85 14 -157 20 -194 3 -16 7 -48 10 -70 2 -22 7
-53 10 -70 6 -33 12 -70 21 -130 3 -22 8 -43 10 -46 2 -4 6 -24 10 -45 3 -22
10 -57 16 -79 5 -22 11 -47 13 -55 2 -8 13 -51 25 -95 12 -44 24 -91 27 -105
2 -14 8 -34 13 -45 7 -16 61 -177 65 -195 3 -9 16 -42 62 -155 24 -60 46 -114
47 -120 2 -5 9 -24 17 -41 17 -38 1 -53 164 161 71 94 132 172 135 175 3 3 17
21 30 40 13 19 27 37 30 40 4 3 26 32 50 65 24 33 48 65 52 70 70 90 114 147
223 290 134 176 268 353 283 370 24 29 290 381 309 408 26 37 32 67 53 251 7
54 13 107 15 117 2 10 7 49 10 86 4 37 9 70 10 73 2 3 6 37 10 75 4 39 9 79
11 90 3 11 7 39 9 63 3 23 7 61 10 85 2 23 7 53 9 66 3 13 8 47 11 75 3 28 7
67 10 86 3 19 7 55 10 80 2 25 7 61 10 80 11 67 14 86 21 155 3 39 8 72 9 75
2 3 6 34 10 70 4 36 9 73 10 82 2 9 7 48 10 85 4 37 9 70 10 73 2 3 6 39 10
80 4 41 9 78 11 81 2 4 6 33 9 65 3 33 8 70 10 84 2 14 7 45 10 70 3 25 7 61
10 80 8 55 15 111 21 169 3 30 7 63 9 73 2 10 3 18 1 18 -2 0 -43 -53 -92
-117z"/>
<path d="M5503 5428 c-2 -29 -14 -134 -18 -148 -2 -8 -7 -42 -11 -75 -7 -73
-11 -100 -18 -145 -4 -19 -8 -55 -10 -80 -4 -44 -8 -71 -22 -155 -3 -22 -7
-56 -9 -75 -2 -19 -6 -57 -10 -85 -3 -27 -8 -63 -10 -80 -2 -16 -4 -30 -5 -30
-1 0 -3 -13 -4 -30 -3 -29 -11 -94 -22 -165 -2 -19 -7 -53 -9 -75 -17 -152
-25 -216 -30 -235 -2 -8 -7 -43 -10 -78 -4 -35 -8 -71 -10 -81 -2 -10 -6 -42
-10 -72 -3 -30 -8 -65 -10 -79 -2 -14 -7 -47 -10 -75 -8 -78 -26 -217 -31
-245 -2 -14 -9 -63 -14 -110 -6 -47 -13 -98 -16 -115 -2 -16 -6 -50 -9 -75 -2
-25 -7 -65 -10 -91 -5 -36 -2 -56 18 -100 14 -29 39 -88 55 -129 17 -41 39
-93 48 -115 10 -22 18 -42 19 -45 1 -3 6 -16 12 -30 6 -14 27 -65 48 -115 20
-49 42 -103 50 -120 7 -16 43 -102 80 -190 70 -169 74 -179 98 -235 8 -19 26
-62 40 -95 48 -118 208 -500 217 -520 13 -28 89 -211 101 -242 l9 -26 26 29
c35 40 198 263 214 294 7 14 16 27 19 30 4 3 31 46 62 95 169 273 285 512 399
819 l48 129 -30 71 c-16 39 -33 80 -38 91 -5 11 -39 92 -75 180 -36 88 -72
174 -79 190 -8 17 -29 68 -49 115 -67 161 -135 326 -202 485 -37 88 -90 214
-117 280 -54 129 -75 178 -89 210 -4 11 -62 151 -129 310 -66 160 -126 301
-132 315 -6 14 -14 34 -19 45 -52 129 -85 209 -105 253 -13 29 -24 56 -24 61
0 5 -9 26 -19 48 -21 41 -87 198 -116 276 -17 45 -31 60 -32 35z"/>
<path d="M3600 4688 c-14 -5 -34 -11 -45 -13 -11 -1 -103 -24 -205 -50 -102
-26 -192 -48 -200 -50 -8 -2 -71 -18 -140 -35 -69 -17 -132 -33 -140 -35 -8
-2 -80 -20 -160 -40 -80 -20 -152 -39 -160 -41 -183 -46 -227 -57 -240 -59 -8
-2 -15 -4 -15 -5 0 -1 -8 -3 -18 -5 -10 -2 -61 -15 -115 -29 -53 -14 -108 -28
-122 -30 -14 -2 -25 -5 -25 -7 0 -1 -9 -3 -20 -5 -25 -4 -484 -120 -505 -128
-8 -3 -26 -8 -40 -10 -14 -3 -50 -11 -80 -18 l-55 -13 -77 -115 c-87 -131
-161 -259 -254 -441 -19 -37 -34 -71 -34 -78 0 -6 -4 -11 -10 -11 -5 0 -10 -8
-10 -18 0 -10 -6 -26 -13 -37 -7 -11 -19 -36 -27 -55 -7 -19 -26 -64 -42 -99
-35 -77 -160 -441 -151 -441 3 0 0 -7 -7 -15 -7 -8 -10 -15 -7 -15 3 0 -3 -27
-13 -60 -17 -57 -17 -60 0 -60 9 0 36 7 59 15 22 8 41 12 41 10 0 -3 11 0 25
5 14 5 36 12 48 14 12 2 51 12 87 21 36 9 72 18 80 20 8 2 87 22 175 45 88 23
170 43 183 46 43 9 427 105 452 113 22 7 46 13 145 36 11 2 65 16 120 31 55
14 107 27 115 28 8 2 22 6 30 9 8 3 101 26 205 52 105 26 209 52 232 58 35 10
77 46 235 199 461 445 509 493 513 518 3 13 7 42 11 64 3 22 7 44 10 47 2 4 6
22 9 40 2 19 7 45 10 59 8 32 14 60 19 85 2 11 10 40 17 65 7 25 13 50 15 55
6 31 28 103 60 200 50 152 63 195 61 194 -1 0 -13 -5 -27 -11z"/>
<path d="M3213 3562 c-88 -86 -226 -220 -305 -297 -154 -149 -143 -132 -188
-280 -9 -32 -32 -114 -36 -130 -3 -13 -124 -436 -170 -595 -34 -117 -48 -167
-59 -215 -3 -11 -14 -47 -24 -80 -11 -33 -22 -72 -25 -85 -2 -14 -14 -56 -26
-94 -12 -38 -24 -78 -26 -90 -6 -26 -7 -30 -23 -86 -7 -25 -16 -52 -19 -60 -3
-8 -6 -22 -8 -30 -2 -8 -17 -62 -34 -120 -33 -111 -59 -205 -65 -230 -2 -8 -6
-23 -10 -33 -9 -21 -4 -20 125 13 47 12 90 23 95 24 6 1 35 10 65 19 30 9 60
17 65 18 6 1 46 16 90 32 44 16 89 31 100 34 11 3 27 7 35 10 8 4 18 5 23 5 4
-1 7 2 7 8 0 5 7 10 16 10 39 0 434 184 589 275 33 19 71 41 85 47 14 7 44 26
67 42 33 22 40 32 33 44 -14 26 -90 277 -104 342 -3 14 -21 97 -40 185 -19 88
-37 183 -41 210 -4 28 -9 61 -11 75 -2 14 -6 43 -8 65 -3 22 -7 58 -10 80 -19
142 -28 655 -13 815 10 119 17 185 22 208 2 12 1 22 -3 22 -4 0 -80 -71 -169
-158z"/>
<path d="M2445 3034 c-71 -18 -139 -36 -150 -38 -11 -2 -220 -55 -465 -116
-245 -61 -452 -113 -460 -115 -8 -2 -69 -17 -135 -35 -66 -17 -127 -32 -136
-35 -9 -2 -33 -8 -53 -13 -20 -6 -36 -8 -36 -5 0 3 -7 0 -15 -7 -9 -7 -18 -10
-21 -7 -3 3 -18 1 -33 -5 -14 -5 -35 -11 -46 -14 -11 -2 -75 -18 -142 -35
-135 -35 -129 -29 -148 -149 -2 -14 -9 -50 -15 -80 -7 -30 -13 -66 -15 -80 -2
-14 -6 -38 -8 -55 -5 -28 -9 -56 -23 -157 -3 -24 -8 -63 -10 -88 -2 -25 -7
-74 -11 -110 -15 -143 -6 -791 11 -808 2 -1 44 37 93 85 50 48 186 180 302
293 117 113 262 254 324 314 62 59 217 210 346 335 128 124 268 260 311 301
80 78 463 449 601 583 44 42 76 77 72 76 -4 0 -66 -16 -138 -35z"/>
<path d="M2539 2909 c-51 -50 -204 -198 -338 -328 -338 -328 -393 -381 -607
-588 -104 -100 -241 -233 -305 -295 -64 -62 -214 -207 -334 -323 -237 -230
-336 -328 -332 -331 5 -6 160 -20 302 -29 82 -5 460 -5 510 0 42 4 195 16 255
19 19 2 49 5 65 9 17 3 53 9 80 12 28 3 75 10 105 15 30 5 69 12 87 15 74 12
71 6 134 226 33 112 62 211 64 219 5 21 31 114 50 180 9 30 18 62 20 70 2 8
24 87 50 175 25 88 48 167 50 175 10 44 107 387 112 400 8 20 6 15 46 160 19
69 39 136 45 150 5 14 10 30 11 35 0 6 8 34 17 64 8 29 14 55 12 57 -2 2 -47
-37 -99 -87z"/>
<path d="M4960 2673 c-69 -92 -133 -175 -142 -185 -10 -10 -18 -20 -18 -23 0
-3 -7 -13 -15 -22 -8 -10 -107 -139 -221 -288 -113 -148 -211 -273 -217 -277
-7 -4 -8 -8 -3 -8 6 0 1 -9 -10 -19 -10 -11 -48 -59 -84 -106 -36 -48 -100
-131 -142 -186 -43 -54 -78 -103 -78 -108 0 -5 -4 -11 -9 -13 -4 -1 -36 -40
-69 -85 -34 -45 -66 -84 -72 -88 -5 -3 -10 -15 -10 -26 0 -17 72 -164 138
-279 66 -117 127 -215 134 -218 4 -2 8 -8 8 -14 0 -16 183 -278 228 -326 6 -7
12 -16 12 -20 0 -4 17 -25 37 -47 19 -22 47 -56 62 -75 14 -19 33 -42 41 -50
8 -9 47 -52 85 -95 88 -98 95 -105 104 -105 4 0 8 6 8 13 0 6 3 35 7 62 3 28
9 70 12 95 3 25 8 56 10 70 3 14 7 45 9 70 2 25 6 59 9 75 4 27 11 83 20 155
2 14 6 48 10 75 4 28 9 64 11 80 2 17 7 50 10 75 3 25 8 61 10 80 6 59 16 134
20 161 3 14 7 51 10 81 3 30 8 66 10 79 3 13 8 48 11 78 3 30 8 64 10 75 2 12
6 45 10 74 3 29 7 63 10 75 2 12 6 46 9 77 3 31 7 66 10 79 2 13 7 49 10 80 4
31 9 67 11 81 6 30 11 66 18 140 4 30 8 66 10 80 3 14 7 50 11 81 3 31 7 65 9
75 4 18 14 105 21 169 2 17 6 44 9 60 3 17 8 55 11 85 7 63 14 117 19 146 2
11 7 47 10 79 4 32 9 73 12 92 3 18 4 33 2 32 -2 0 -59 -75 -128 -166z"/>
<path d="M5159 2793 c-1 -34 -4 -63 -12 -123 -14 -101 -20 -146 -22 -170 -2
-14 -5 -43 -8 -65 -3 -22 -8 -60 -11 -85 -4 -25 -8 -54 -10 -66 -2 -11 -7 -54
-11 -95 -4 -40 -8 -76 -10 -79 -3 -5 -13 -83 -21 -160 -6 -58 -14 -123 -19
-150 -3 -14 -7 -46 -10 -73 -2 -26 -7 -62 -10 -80 -3 -17 -8 -52 -10 -77 -2
-25 -6 -56 -9 -70 -2 -14 -7 -50 -11 -81 -3 -31 -7 -66 -10 -77 -2 -12 -6 -47
-10 -79 -3 -32 -8 -71 -10 -88 -3 -16 -9 -66 -15 -110 -16 -127 -20 -158 -25
-195 -3 -19 -7 -55 -10 -79 -2 -24 -7 -60 -10 -80 -7 -49 -16 -121 -20 -151
-1 -14 -6 -50 -10 -80 -4 -30 -9 -66 -10 -80 -5 -50 -16 -136 -20 -165 -5 -29
-8 -52 -21 -158 l-6 -49 83 52 c84 52 355 244 374 265 6 6 33 29 60 50 96 75
197 167 335 306 212 212 284 296 271 314 -5 5 -63 143 -131 305 -67 162 -128
310 -136 328 -32 73 -43 100 -69 162 -14 36 -32 79 -40 95 -7 17 -23 55 -35
85 -12 30 -28 71 -37 90 -8 19 -22 50 -29 68 -8 17 -20 47 -28 65 -8 17 -30
70 -49 117 -96 229 -167 399 -183 435 -10 22 -17 43 -16 48 1 4 -2 7 -8 7 -5
0 -10 -12 -11 -27z"/>
</g>
</svg>
